<svg width="100" height="100" viewBox="0 0 100 100" fill="none" xmlns="http://www.w3.org/2000/svg">
<path d="M47 4.04145C48.8564 2.96965 51.1436 2.96965 53 4.04145L88.3013 24.4226C90.1577 25.4944 91.3013 27.4752 91.3013 29.6188V70.3812C91.3013 72.5248 90.1577 74.5056 88.3013 75.5774L53 95.9585C51.1436 97.0303 48.8564 97.0303 47 95.9585L11.6987 75.5774C9.84232 74.5056 8.69873 72.5248 8.69873 70.3812V29.6188C8.69873 27.4752 9.84232 25.4944 11.6987 24.4226L47 4.04145Z" fill="#353535" stroke="#199EFF" stroke-width="4"/>
<path d="M64.8163 69V39.245H64.5963L51.6163 69H48.1513L35.2263 39.245H35.0063V69H30.5513V31.16H36.9313L49.8563 60.585H50.1313L63.0563 31.16H69.4363V69H64.8163Z" fill="#199EFF"/>
</svg>
