<svg width="100" height="100" viewBox="0 0 100 100" fill="none" xmlns="http://www.w3.org/2000/svg">
<path d="M47 4.04145C48.8564 2.96965 51.1436 2.96965 53 4.04145L88.3013 24.4226C90.1577 25.4944 91.3013 27.4752 91.3013 29.6188V70.3812C91.3013 72.5248 90.1577 74.5056 88.3013 75.5774L53 95.9585C51.1436 97.0303 48.8564 97.0303 47 95.9585L11.6987 75.5774C9.84232 74.5056 8.69873 72.5248 8.69873 70.3812V29.6188C8.69873 27.4752 9.84232 25.4944 11.6987 24.4226L47 4.04145Z" fill="#353535" stroke="#FF4539" stroke-width="4"/>
<path d="M47.0283 71L33.3333 33.16H38.2833L49.8883 65.17H50.1633L61.8233 33.16H66.6083L52.9683 71H47.0283Z" fill="#FF4539"/>
</svg>
