<svg width="100" height="100" viewBox="0 0 100 100" fill="none" xmlns="http://www.w3.org/2000/svg">
<path d="M47 4.04145C48.8564 2.96965 51.1436 2.96965 53 4.04145L88.3013 24.4226C90.1577 25.4944 91.3013 27.4752 91.3013 29.6188V70.3812C91.3013 72.5248 90.1577 74.5056 88.3013 75.5774L53 95.9585C51.1436 97.0303 48.8564 97.0303 47 95.9585L11.6987 75.5774C9.84232 74.5056 8.69873 72.5248 8.69873 70.3812V29.6188C8.69873 27.4752 9.84232 25.4944 11.6987 24.4226L47 4.04145Z" fill="#353535" stroke="#FF7439" stroke-width="4"/>
<path d="M46.7496 66.75C45.7163 66.95 44.4163 67.1 42.8496 67.2C41.3163 67.3333 39.8829 67.4 38.5496 67.4C34.4163 67.4 31.3996 66.95 29.4996 66.05C27.5996 65.15 26.3163 63.5167 25.6496 61.15C25.0163 58.75 24.6996 54.9667 24.6996 49.8C24.6996 44.6667 25.0163 40.9 25.6496 38.5C26.3163 36.1 27.5996 34.45 29.4996 33.55C31.3996 32.65 34.4163 32.2 38.5496 32.2C39.9163 32.2 41.3496 32.2667 42.8496 32.4C44.3496 32.5333 45.5829 32.7167 46.5496 32.95V36.7C44.0496 36.3667 41.7496 36.2 39.6496 36.2C36.1496 36.2 33.6996 36.4667 32.2996 37C30.9329 37.5333 30.0329 38.6833 29.5996 40.45C29.1663 42.2167 28.9496 45.3333 28.9496 49.8C28.9496 54.2667 29.1663 57.3833 29.5996 59.15C30.0329 60.9167 30.9329 62.0667 32.2996 62.6C33.6996 63.1333 36.1496 63.4 39.6496 63.4C42.2163 63.4 44.5829 63.2333 46.7496 62.9V66.75ZM62.3094 67.4C59.776 67.4 57.8427 67.0167 56.5094 66.25C55.176 65.4833 54.226 64.1833 53.6594 62.35C53.126 60.4833 52.8594 57.8 52.8594 54.3C52.8594 50.7667 53.126 48.0667 53.6594 46.2C54.1927 44.3333 55.1094 43.0167 56.4094 42.25C57.7427 41.4833 59.6594 41.1 62.1594 41.1C64.3594 41.1 66.126 41.3667 67.4594 41.9C68.826 42.4333 69.826 43.3667 70.4594 44.7H70.7594V29.85H74.8094V67H71.1594L71.0094 63.45H70.7094C70.0094 64.9833 68.9427 66.0333 67.5094 66.6C66.076 67.1333 64.3427 67.4 62.3094 67.4ZM63.8594 63.5C65.5927 63.5 66.9594 63.2833 67.9594 62.85C68.9594 62.3833 69.6427 61.6667 70.0094 60.7C70.3427 59.9333 70.5427 59.0667 70.6094 58.1C70.7094 57.1 70.7594 55.7333 70.7594 54C70.7594 52.5667 70.7094 51.3833 70.6094 50.45C70.5094 49.5167 70.326 48.7167 70.0594 48.05C69.6594 47.0167 68.9427 46.2667 67.9094 45.8C66.9094 45.3 65.526 45.05 63.7594 45.05C61.6594 45.05 60.1427 45.2667 59.2094 45.7C58.3094 46.1 57.6927 46.9167 57.3594 48.15C57.0594 49.3833 56.9094 51.4167 56.9094 54.25C56.9094 57.15 57.0594 59.2167 57.3594 60.45C57.6927 61.6833 58.3094 62.5 59.2094 62.9C60.1427 63.3 61.6927 63.5 63.8594 63.5Z" fill="#FF7439"/>
</svg>
