<svg width="100" height="100" viewBox="0 0 100 100" fill="none" xmlns="http://www.w3.org/2000/svg">
<path d="M47 4.04145C48.8564 2.96965 51.1436 2.96965 53 4.04145L88.3013 24.4226C90.1577 25.4944 91.3013 27.4752 91.3013 29.6188V70.3812C91.3013 72.5248 90.1577 74.5056 88.3013 75.5774L53 95.9585C51.1436 97.0303 48.8564 97.0303 47 95.9585L11.6987 75.5774C9.84232 74.5056 8.69873 72.5248 8.69873 70.3812V29.6188C8.69873 27.4752 9.84232 25.4944 11.6987 24.4226L47 4.04145Z" fill="#353535" stroke="white" stroke-width="4"/>
<path d="M73.2395 31C73.0002 31 72.7705 31.0948 72.6017 31.2641C69.5793 34.286 66.5574 37.3079 63.5355 40.3298L63.535 40.3292L53.954 49.9079L53.9495 49.9033C52.1739 51.6784 50.3988 53.4535 48.6232 55.2286C48.271 55.5808 47.7003 55.5808 47.3481 55.2286C47.1117 54.9921 46.8757 54.7556 46.6392 54.5191C46.287 54.1669 45.7164 54.1669 45.3642 54.5186L38.8159 61.0663C38.4637 61.4185 38.4637 61.9891 38.8159 62.3408C39.1754 62.7009 39.535 63.0604 39.8951 63.4205C40.0638 63.5898 40.293 63.6846 40.5323 63.6846C45.4901 63.6875 50.4473 63.6908 55.4051 63.6937C55.6445 63.6937 55.8736 63.5988 56.0429 63.4301C64.9404 54.5417 73.8383 45.6533 82.7358 36.7649C82.9051 36.5956 82.9999 36.3664 82.9999 36.1271V31.907C82.9999 31.4092 82.5969 31.0056 82.0991 31.0056C79.1455 31.004 76.1925 31.0017 73.2395 31Z" fill="white"/>
<path d="M36.5208 59.7564L46.6882 49.5913C48.2567 48.0222 49.8246 46.4531 51.3931 44.8841C51.7453 44.5319 52.3159 44.5319 52.6681 44.8841C52.9063 45.1223 53.145 45.361 53.3832 45.5992C53.7354 45.9514 54.306 45.9514 54.6582 45.5992L61.2353 39.0232C61.5875 38.671 61.5875 38.0993 61.2348 37.7476C60.8747 37.3887 60.5152 37.0297 60.1551 36.6707C59.9863 36.502 59.7571 36.4077 59.5184 36.4077L44.5677 36.4105C44.3289 36.4105 44.0998 36.5054 43.9304 36.6741C35.0415 45.558 26.1531 54.4413 17.2641 63.3246C17.0948 63.4939 17 63.7231 17 63.9624V68.3264C17 68.8237 17.4024 69.2267 17.8997 69.2278C20.8188 69.2334 23.738 69.2385 26.6577 69.2442C26.8976 69.2447 27.1273 69.1493 27.2972 68.98C30.371 65.9051 33.4453 62.8296 36.5191 59.7547C36.5197 59.7553 36.5202 59.7558 36.5208 59.7564Z" fill="white"/>
</svg>
