<svg width="100" height="100" viewBox="0 0 100 100" fill="none" xmlns="http://www.w3.org/2000/svg">
<path d="M47 4.04145C48.8564 2.96965 51.1436 2.96965 53 4.04145L88.3013 24.4226C90.1577 25.4944 91.3013 27.4752 91.3013 29.6188V70.3812C91.3013 72.5248 90.1577 74.5056 88.3013 75.5774L53 95.9585C51.1436 97.0303 48.8564 97.0303 47 95.9585L11.6987 75.5774C9.84232 74.5056 8.69873 72.5248 8.69873 70.3812V29.6188C8.69873 27.4752 9.84232 25.4944 11.6987 24.4226L47 4.04145Z" fill="#353535" stroke="#C92FFF" stroke-width="4"/>
<path d="M36.1523 50.3V46.35H48.0523V64.4C46.419 64.7 44.569 64.9333 42.5023 65.1C40.469 65.3 38.669 65.4 37.1023 65.4C32.9023 65.4 29.7857 64.95 27.7523 64.05C25.7523 63.1167 24.369 61.45 23.6023 59.05C22.869 56.6167 22.5023 52.8667 22.5023 47.8C22.5023 42.7667 22.8857 39.0333 23.6523 36.6C24.419 34.1667 25.8023 32.5 27.8023 31.6C29.8357 30.6667 32.9357 30.2 37.1023 30.2C38.7357 30.2 40.5523 30.3 42.5523 30.5C44.5857 30.7 46.369 30.9333 47.9023 31.2V35C44.1023 34.4667 41.2023 34.2 39.2023 34.2C35.2357 34.2 32.469 34.4167 30.9023 34.85C29.369 35.2833 28.2857 36.4167 27.6523 38.25C27.0523 40.0833 26.7523 43.2667 26.7523 47.8C26.7523 52 26.9857 55.0167 27.4523 56.85C27.919 58.6833 28.8523 59.9167 30.2523 60.55C31.6523 61.1833 33.9523 61.5 37.1523 61.5C38.1523 61.5 39.319 61.4667 40.6523 61.4C41.9857 61.3 43.069 61.2 43.9023 61.1V50.3H36.1523ZM66.9402 65.4C63.3736 65.4 60.8236 65.05 59.2902 64.35C57.7569 63.6167 56.7736 62.4 56.3402 60.7C55.9402 58.9667 55.7402 56.15 55.7402 52.25C55.7402 48.35 55.9402 45.55 56.3402 43.85C56.7736 42.1167 57.7569 40.9 59.2902 40.2C60.8236 39.4667 63.3736 39.1 66.9402 39.1C70.4736 39.1 73.0069 39.4667 74.5402 40.2C76.0736 40.9 77.0402 42.1167 77.4402 43.85C77.8736 45.55 78.0902 48.35 78.0902 52.25C78.0902 56.15 77.8736 58.9667 77.4402 60.7C77.0402 62.4 76.0736 63.6167 74.5402 64.35C73.0069 65.05 70.4736 65.4 66.9402 65.4ZM66.9402 61.7C69.3736 61.7 71.0569 61.4833 71.9902 61.05C72.9236 60.6167 73.4902 59.8333 73.6902 58.7C73.9236 57.5333 74.0402 55.3833 74.0402 52.25C74.0402 49.1167 73.9236 46.9833 73.6902 45.85C73.4902 44.6833 72.9236 43.8833 71.9902 43.45C71.0569 43.0167 69.3736 42.8 66.9402 42.8C64.5069 42.8 62.8069 43.0167 61.8402 43.45C60.9069 43.8833 60.3236 44.6833 60.0902 45.85C59.8902 46.9833 59.7902 49.1167 59.7902 52.25C59.7902 55.3833 59.8902 57.5333 60.0902 58.7C60.3236 59.8333 60.9069 60.6167 61.8402 61.05C62.8069 61.4833 64.5069 61.7 66.9402 61.7Z" fill="#C92FFF"/>
</svg>
