<svg width="100" height="100" viewBox="0 0 100 100" fill="none" xmlns="http://www.w3.org/2000/svg">
<path d="M47 4.04145C48.8564 2.96965 51.1436 2.96965 53 4.04145L88.3013 24.4226C90.1577 25.4944 91.3013 27.4752 91.3013 29.6188V70.3812C91.3013 72.5248 90.1577 74.5056 88.3013 75.5774L53 95.9585C51.1436 97.0303 48.8564 97.0303 47 95.9585L11.6987 75.5774C9.84232 74.5056 8.69873 72.5248 8.69873 70.3812V29.6188C8.69873 27.4752 9.84232 25.4944 11.6987 24.4226L47 4.04145Z" fill="#353535" stroke="#6DEC58" stroke-width="4"/>
<path d="M50.8001 69.44C48.7834 69.44 46.5284 69.3667 44.0351 69.22C41.5784 69.0733 39.3967 68.89 37.4901 68.67V64.325C42.2567 64.8017 46.2351 65.04 49.4251 65.04C51.4051 65.04 52.9634 64.9667 54.1001 64.82C55.2734 64.6367 56.2634 64.325 57.0701 63.885C57.8034 63.445 58.2801 62.8033 58.5001 61.96C58.7201 61.08 58.8301 59.925 58.8301 58.495C58.8301 56.7717 58.7384 55.5617 58.5551 54.865C58.3717 54.1317 57.9317 53.6 57.2351 53.27C56.5751 52.94 55.4201 52.7017 53.7701 52.555L44.4201 51.51C42.1467 51.2533 40.4234 50.7217 39.2501 49.915C38.1134 49.0717 37.3434 47.99 36.9401 46.67C36.5734 45.3133 36.3901 43.5533 36.3901 41.39C36.3901 38.3833 36.9034 36.11 37.9301 34.57C38.9934 33.03 40.4601 32.0033 42.3301 31.49C44.2367 30.9767 46.7851 30.72 49.9751 30.72C52.1017 30.72 54.2651 30.8117 56.4651 30.995C58.6651 31.1783 60.4067 31.3983 61.6901 31.655V35.835C60.2967 35.615 58.5734 35.45 56.5201 35.34C54.4667 35.1933 52.5601 35.12 50.8001 35.12C48.7467 35.12 47.0967 35.2117 45.8501 35.395C44.6034 35.5783 43.6317 35.89 42.9351 36.33C42.1651 36.77 41.6701 37.3567 41.4501 38.09C41.2301 38.8233 41.1201 39.8683 41.1201 41.225C41.1201 42.7283 41.2301 43.8283 41.4501 44.525C41.6701 45.185 42.0917 45.68 42.7151 46.01C43.3384 46.3033 44.3651 46.5233 45.7951 46.67L55.0351 47.715C57.2351 47.935 58.9401 48.32 60.1501 48.87C61.3601 49.42 62.2401 50.41 62.7901 51.84C63.3034 53.16 63.5601 55.2683 63.5601 58.165C63.5601 61.5017 63.0467 63.995 62.0201 65.645C60.9934 67.2583 59.6184 68.3033 57.8951 68.78C56.1717 69.22 53.8067 69.44 50.8001 69.44Z" fill="#6DEC58"/>
</svg>
