<svg width="100" height="100" viewBox="0 0 100 100" fill="none" xmlns="http://www.w3.org/2000/svg">
<path d="M47 4.04145C48.8564 2.96965 51.1436 2.96965 53 4.04145L88.3013 24.4226C90.1577 25.4944 91.3013 27.4752 91.3013 29.6188V70.3812C91.3013 72.5248 90.1577 74.5056 88.3013 75.5774L53 95.9585C51.1436 97.0303 48.8564 97.0303 47 95.9585L11.6987 75.5774C9.84232 74.5056 8.69873 72.5248 8.69873 70.3812V29.6188C8.69873 27.4752 9.84232 25.4944 11.6987 24.4226L47 4.04145Z" fill="#353535" stroke="#FFE34F" stroke-width="4"/>
<path d="M36.54 31.16H48.585C53.8284 31.16 57.5317 31.6367 59.695 32.59C61.8584 33.5067 63.2334 35.175 63.82 37.595C64.4067 40.015 64.7 44.1767 64.7 50.08C64.7 55.9833 64.4067 60.145 63.82 62.565C63.2334 64.985 61.8584 66.6717 59.695 67.625C57.5317 68.5417 53.8284 69 48.585 69H36.54V31.16ZM47.815 64.6C52.105 64.6 54.9834 64.38 56.45 63.94C57.9534 63.4633 58.925 62.3267 59.365 60.53C59.805 58.6967 60.025 55.2133 60.025 50.08C60.025 44.9833 59.7867 41.5183 59.31 39.685C58.87 37.8517 57.8984 36.715 56.395 36.275C54.9284 35.7983 52.0684 35.56 47.815 35.56H41.27V64.6H47.815Z" fill="#FFE34F"/>
</svg>
