<svg width="100" height="100" viewBox="0 0 100 100" fill="none" xmlns="http://www.w3.org/2000/svg">
<path d="M53 4.04145L88.3013 24.4227C90.1577 25.4944 91.3013 27.4752 91.3013 29.6188V70.3812C91.3013 72.5248 90.1577 74.5056 88.3013 75.5773L53 95.9585C51.1436 97.0303 48.8564 97.0303 47 95.9585L11.6987 75.5773C9.84232 74.5056 8.69873 72.5248 8.69873 70.3812V29.6188C8.69873 27.4752 9.84232 25.4944 11.6987 24.4226L47 4.04145C48.8564 2.96965 51.1436 2.96965 53 4.04145Z" fill="#353535" stroke="#C92FFF" stroke-width="4"/>
<path d="M61.6721 68.725C60.5355 68.945 59.1055 69.11 57.3821 69.22C55.6955 69.3667 54.1188 69.44 52.6521 69.44C48.1055 69.44 44.7871 68.945 42.6971 67.955C40.6071 66.965 39.1955 65.1683 38.4621 62.565C37.7655 59.925 37.4171 55.7633 37.4171 50.08C37.4171 44.4333 37.7655 40.29 38.4621 37.65C39.1955 35.01 40.6071 33.195 42.6971 32.205C44.7871 31.215 48.1055 30.72 52.6521 30.72C54.1555 30.72 55.7321 30.7933 57.3821 30.94C59.0321 31.0867 60.3888 31.2883 61.4521 31.545V35.67C58.7021 35.3033 56.1721 35.12 53.8621 35.12C50.0121 35.12 47.3171 35.4133 45.7771 36C44.2738 36.5867 43.2838 37.8517 42.8071 39.795C42.3305 41.7383 42.0921 45.1667 42.0921 50.08C42.0921 54.9933 42.3305 58.4217 42.8071 60.365C43.2838 62.3083 44.2738 63.5733 45.7771 64.16C47.3171 64.7467 50.0121 65.04 53.8621 65.04C56.6855 65.04 59.2888 64.8567 61.6721 64.49V68.725Z" fill="#C92FFF"/>
</svg>
